<svg width="290" height="274" viewBox="0 0 290 274" fill="none" xmlns="http://www.w3.org/2000/svg">
<g clip-path="url(#clip0)">
<path d="M16.08 269.463C14.82 268.203 13.8301 266.753 13.1201 265.103C12.4101 263.463 12.0601 261.693 12.0601 259.803V254.223C12.0601 252.363 12.4201 250.603 13.1501 248.943C13.8801 247.283 14.8601 245.843 16.0901 244.613C17.3201 243.383 18.76 242.413 20.42 241.703C22.08 240.993 23.8501 240.643 25.7501 240.643H52.7801V245.803H25.7501C24.5801 245.803 23.4901 246.023 22.4601 246.463C21.4301 246.903 20.54 247.513 19.79 248.283C19.03 249.053 18.43 249.953 17.97 250.983C17.51 252.013 17.2801 253.093 17.2801 254.223V259.803C17.2801 260.943 17.5 262.023 17.94 263.043C18.38 264.073 18.9801 264.963 19.7401 265.743C20.5001 266.513 21.38 267.123 22.39 267.563C23.4 268.003 24.49 268.223 25.66 268.223H52.7801V273.433H25.7501C23.8601 273.433 22.08 273.083 20.42 272.363C18.75 271.663 17.31 270.693 16.08 269.463Z" fill="#878787"/>
<path d="M74.77 273.433C72.88 273.433 71.1 273.083 69.44 272.363C67.78 271.653 66.34 270.683 65.11 269.453C63.88 268.223 62.91 266.783 62.2 265.123C61.49 263.463 61.14 261.693 61.14 259.793V254.213C61.14 252.353 61.49 250.593 62.2 248.933C62.91 247.273 63.88 245.833 65.11 244.603C66.34 243.373 67.78 242.403 69.44 241.693C71.1 240.983 72.87 240.633 74.77 240.633H97.77C99.66 240.633 101.44 240.983 103.1 241.693C104.76 242.403 106.2 243.373 107.43 244.603C108.66 245.833 109.63 247.273 110.34 248.933C111.05 250.593 111.4 252.353 111.4 254.213V259.793C111.4 261.683 111.04 263.463 110.34 265.123C109.63 266.783 108.66 268.223 107.43 269.453C106.2 270.683 104.76 271.653 103.1 272.363C101.44 273.073 99.67 273.433 97.77 273.433H74.77ZM66.35 259.803C66.35 260.973 66.57 262.073 67.01 263.093C67.45 264.123 68.05 265.013 68.81 265.763C69.57 266.523 70.46 267.123 71.48 267.563C72.51 268.003 73.6 268.223 74.77 268.223H97.77C98.94 268.223 100.03 268.003 101.06 267.563C102.09 267.123 102.98 266.523 103.76 265.763C104.53 265.003 105.14 264.113 105.58 263.093C106.02 262.073 106.24 260.973 106.24 259.803V254.223C106.24 253.083 106.02 252.003 105.58 250.983C105.14 249.963 104.53 249.063 103.76 248.283C102.99 247.513 102.09 246.903 101.06 246.463C100.03 246.023 98.94 245.803 97.77 245.803H74.77C73.6 245.803 72.51 246.023 71.48 246.463C70.45 246.903 69.56 247.513 68.81 248.283C68.05 249.053 67.45 249.953 67.01 250.983C66.57 252.013 66.35 253.093 66.35 254.223V259.803Z" fill="#878787"/>
<path d="M125.14 240.683V260.093C125.14 261.233 125.35 262.303 125.78 263.313C126.21 264.323 126.79 265.203 127.53 265.943C128.27 266.683 129.15 267.273 130.16 267.713C131.17 268.153 132.24 268.373 133.38 268.373H159.89V273.433H133.38C131.55 273.433 129.83 273.083 128.22 272.393C126.61 271.703 125.19 270.733 123.96 269.503C122.76 268.303 121.81 266.893 121.12 265.263C120.42 263.633 120.08 261.913 120.08 260.083V240.673H125.14V240.683Z" fill="#878787"/>
<path d="M165.37 273.433V240.633H170.58V273.433H165.37Z" fill="#878787"/>
<path d="M217.63 256.543C218.64 257.463 219.43 258.523 220 259.743C220.57 260.953 220.85 262.263 220.85 263.643C220.85 265.003 220.57 266.283 220.02 267.473C219.47 268.673 218.72 269.713 217.77 270.593C216.82 271.473 215.73 272.173 214.48 272.673C213.23 273.173 211.93 273.433 210.57 273.433H178.38V240.633H210.42C211.4 240.633 212.37 240.753 213.33 240.983C214.29 241.223 215.19 241.563 216.03 242.023C216.87 242.483 217.62 243.053 218.3 243.723C218.98 244.403 219.52 245.183 219.93 246.063C220.53 247.263 220.83 248.513 220.83 249.803C220.83 251.063 220.55 252.293 220 253.493C219.47 254.713 218.67 255.713 217.63 256.543ZM183.55 253.843H210.63C211.23 253.843 211.83 253.753 212.43 253.563C213.03 253.373 213.57 253.103 214.06 252.763C214.55 252.413 214.94 252.003 215.24 251.513C215.54 251.023 215.69 250.463 215.69 249.833C215.69 249.203 215.53 248.643 215.22 248.153C214.9 247.663 214.5 247.243 214.01 246.903C213.52 246.553 212.96 246.283 212.33 246.103C211.7 245.913 211.07 245.823 210.44 245.823H183.55V253.843ZM215.31 265.393C215.56 264.893 215.69 264.323 215.69 263.693C215.69 263.093 215.56 262.513 215.29 261.943C215.02 261.373 214.65 260.873 214.18 260.453C213.71 260.023 213.17 259.693 212.57 259.433C211.97 259.183 211.34 259.053 210.68 259.053H183.56V268.233H210.68C211.66 268.233 212.58 267.973 213.45 267.453C214.31 266.933 214.93 266.243 215.31 265.393Z" fill="#878787"/>
<path d="M230.74 273.433V254.073C230.74 252.243 231.09 250.513 231.78 248.893C232.47 247.263 233.42 245.853 234.62 244.653C235.82 243.453 237.22 242.503 238.83 241.793C240.44 241.083 242.17 240.733 244.04 240.733H267.42V245.843H244.04C242.9 245.843 241.84 246.053 240.84 246.483C239.85 246.913 238.98 247.503 238.24 248.253C237.5 249.013 236.91 249.883 236.46 250.883C236.02 251.883 235.8 252.943 235.8 254.083V273.443H230.74V273.433Z" fill="#878787"/>
<path d="M272.35 273.433V240.633H277.56V273.433H272.35Z" fill="#878787"/>
<path d="M105.41 81.9532C102.71 70.8432 138.14 140.393 138.14 140.393C138.14 140.393 118.17 212.333 80.01 215.733C53.64 218.083 39.8 212.273 28.95 204.963C68.5 215.953 125.55 164.633 105.41 81.9532Z" fill="url(#paint0_linear)"/>
<path d="M209.51 50.9231C202.59 37.7631 188.6 34.3231 174.78 38.7331C161.09 43.1031 156.07 51.1131 154.12 56.6231C146.92 77.0231 133.58 71.9131 126.59 57.5631C110.62 24.7631 66.61 -1.77688 3.05176e-05 0.0931204C81.91 22.9931 118.43 87.3131 109.31 155.373C104.45 191.593 68.5 215.953 68.5 215.953C68.5 215.953 98.03 218.523 126.6 199.833C175.75 168.853 171.04 75.2331 209.51 50.9231Z" fill="url(#paint1_linear)"/>
<path d="M289.97 57.4732C289.97 57.4732 256.67 51.0132 228.55 59.6032C219.29 62.4332 211.1 67.4232 203.84 73.7532C183.69 91.3232 183.7 108.763 165.38 151.833C154.38 177.683 138.29 193.173 122.36 202.453C132.83 195.533 142.86 183.973 148.72 169.303C164.8 129.063 150.05 108.753 179.26 67.7832C189.13 53.9432 209.5 50.9332 209.5 50.9332C265.66 44.6032 289.97 57.4732 289.97 57.4732Z" fill="url(#paint2_linear)"/>
<path d="M110.53 208.293C110.97 208.063 111.52 207.823 112.19 207.583C111.64 207.833 111.09 208.073 110.53 208.293Z" fill="url(#paint3_linear)"/>
</g>
<defs>
<linearGradient id="paint0_linear" x1="113.404" y1="152.784" x2="36.8622" y2="141.764" gradientUnits="userSpaceOnUse">
<stop offset="0.0485" stop-color="#006838"/>
<stop offset="0.8788" stop-color="#8DC63F"/>
</linearGradient>
<linearGradient id="paint1_linear" x1="82.3174" y1="-64.4514" x2="158.26" y2="240.071" gradientUnits="userSpaceOnUse">
<stop stop-color="#97C43F"/>
<stop offset="0.0534" stop-color="#AABA38"/>
<stop offset="0.1602" stop-color="#CCAA2D"/>
<stop offset="0.2623" stop-color="#E49E25"/>
<stop offset="0.3568" stop-color="#F29620"/>
<stop offset="0.4364" stop-color="#F7941E"/>
<stop offset="0.5076" stop-color="#F68D24"/>
<stop offset="0.6143" stop-color="#F57833"/>
<stop offset="0.7433" stop-color="#F2574C"/>
<stop offset="0.8883" stop-color="#EF296E"/>
<stop offset="1" stop-color="#EC008C"/>
</linearGradient>
<linearGradient id="paint2_linear" x1="234.482" y1="59.3709" x2="199.746" y2="139.238" gradientUnits="userSpaceOnUse">
<stop offset="0.0485" stop-color="#006838"/>
<stop offset="0.8788" stop-color="#8DC63F"/>
</linearGradient>
<linearGradient id="paint3_linear" x1="185.32" y1="37.9001" x2="150.568" y2="117.802" gradientUnits="userSpaceOnUse">
<stop offset="0.0485" stop-color="#006838"/>
<stop offset="0.8788" stop-color="#8DC63F"/>
</linearGradient>
<clipPath id="clip0">
<rect width="289.97" height="273.443" fill="white"/>
</clipPath>
</defs>
</svg>
