<svg width="3962" height="2400" viewBox="0 0 3962 2400" fill="none" xmlns="http://www.w3.org/2000/svg">
<path fill-rule="evenodd" clip-rule="evenodd" d="M159.992 0.463602C115.17 3.5396 86.089 9.7676 60.252 21.8216C3.83296 48.1446 -13.396 100.022 10.392 171.949C34.379 244.479 95.857 333.561 199.386 445.806C236.331 485.862 311.305 559.457 365.492 608.858C674.406 890.486 1149.15 1226.42 1676.49 1536.53C2407.66 1966.5 3133.34 2287.57 3575.49 2376.73C3624.41 2386.59 3670.91 2393.46 3718.49 2397.84C3737.61 2399.61 3793.45 2400.24 3810.55 2398.9C3887.41 2392.84 3933.35 2370.64 3952.62 2330.25C3959.6 2315.62 3961.39 2306.51 3961.38 2285.81C3961.37 2270.61 3961.01 2266.59 3958.64 2255.31C3942.72 2179.55 3879.51 2081.62 3768.55 1960.83C3634.02 1814.37 3435.45 1642.4 3186.99 1457.17C3138.25 1420.84 3134.99 1418.45 3134.62 1418.94C3134.47 1419.14 3132.66 1427.86 3130.6 1438.31C3124.17 1470.96 3113.65 1512.98 3104.07 1544.28C3101.89 1551.41 3100.19 1557.32 3100.3 1557.39C3103.05 1559.37 3156.91 1602.65 3170.99 1614.19C3374.51 1781.09 3508.39 1923.83 3549.44 2017.69C3580.15 2087.9 3561.93 2131.47 3495.82 2145.9C3474.18 2150.62 3436.02 2152.23 3403.94 2149.78C3169.24 2131.82 2706.23 1953.15 2181.49 1678.03C1560.94 1352.68 961.545 953.799 631.995 646.868C609.298 625.729 556.327 572.987 537.524 552.806C447.347 456.019 400.565 380.578 398.308 328.306C397.364 306.416 402.405 292.206 415.901 278.722C430.652 263.983 449.793 255.978 481.992 251.081C497.994 248.648 549.552 248.683 572.492 251.143C699.829 264.797 873.629 315.17 1095.46 402.715C1105.34 406.615 1113.77 409.806 1114.19 409.806C1114.62 409.806 1125.43 399.177 1138.23 386.185C1164.57 359.443 1194.15 331.859 1214.82 314.774L1219.09 311.242L1191.79 299.37C768.507 115.307 437.486 13.2426 223.492 0.812602C207.989 -0.0883976 170.993 -0.291398 159.992 0.463602ZM1927.99 63.8146C1894.53 65.7376 1858.07 69.1486 1830.99 72.8896C1624.07 101.479 1432.28 183.822 1270.99 313.321C1191.34 377.274 1124.53 447.599 1062.16 533.14C1010.58 603.889 961.802 692.737 928.666 776.306C921.386 794.667 910.389 824.32 909.786 827.216C909.15 830.271 1056.42 940.769 1157.99 1013.45C1668.7 1378.89 2202.35 1677.68 2758.99 1909.83C2802.12 1927.82 2839.2 1942.81 2840.57 1942.81C2842.1 1942.81 2867.29 1912.91 2883.66 1891.68C2945.16 1811.87 2992.57 1730.6 3031.45 1638.31C3137.15 1387.44 3148.31 1105.31 3062.82 844.806C2991.66 627.967 2857.36 437.831 2677.71 299.569C2547.32 199.227 2396.34 127.768 2237.99 91.4506C2178.28 77.7556 2126.12 70.0776 2056.49 64.7356C2038.7 63.3696 1947.15 62.7136 1927.99 63.8146ZM855.142 1066.06C849.226 1116.25 847.521 1146.92 847.595 1201.81C847.687 1269.88 851.952 1322.42 862.573 1386.31C907.12 1654.26 1047.03 1898.55 1255.49 2072.37C1492.45 2269.95 1798.93 2362.33 2105.99 2328.74C2306.34 2306.81 2496.96 2232.12 2658.99 2112.05C2667.52 2105.73 2674.85 2100.24 2675.28 2099.84C2675.72 2099.45 2671.67 2097.19 2666.28 2094.83C2589.21 2061 2434.72 1986.57 2326.99 1931.37C2098.9 1814.48 1899.38 1703.09 1506.39 1473.24C1485.44 1460.98 1455.06 1442.3 1438.89 1431.72C1422.72 1421.14 1355.04 1377.08 1288.49 1333.81C1062.66 1186.97 967.425 1123.67 873.715 1058.14C865.583 1052.46 858.561 1047.81 858.111 1047.81C857.661 1047.81 856.325 1056.02 855.142 1066.06Z" fill="white"/>
</svg>
